<?xml version="1.0" encoding="UTF-8" standalone="no"?>
<!-- Created with Inkscape (http://www.inkscape.org/) -->

<svg
   width="104.00192mm"
   height="123.36043mm"
   viewBox="0 0 104.00192 123.36043"
   version="1.1"
   id="svg1"
   xml:space="preserve"
   xmlns="http://www.w3.org/2000/svg"
   xmlns:svg="http://www.w3.org/2000/svg"><defs
     id="defs1" /><g
     id="layer2"
     transform="translate(-62.892285,-70.059295)"><path
       id="rect1"
       style="fill:#818181;fill-opacity:1;stroke:none;stroke-width:0.501236"
       d="m 62.892285,70.05929 v 73.44358 h 0.0186 a 52.000961,49.666561 0 0 0 -0.0186,0.25011 52.000961,49.666561 0 0 0 52.000965,49.66674 52.000961,49.666561 0 0 0 52.00096,-49.66674 52.000961,49.666561 0 0 0 -0.006,-0.25011 h 0.006 V 70.05929 Z" /><path
       d="m 55.952974,311.1931 q 0,-1.72346 0.408188,-2.99338 0.408189,-1.26992 1.405984,-2.40378 1.043149,-1.17921 2.766612,-2.40378 1.542046,-1.0885 2.449132,-2.04094 0.952441,-0.95244 1.360629,-2.0863 0.453543,-1.13385 0.453543,-2.81196 0,-1.99559 -1.496691,-3.26551 -1.451338,-1.31528 -4.263305,-1.31528 -2.358423,0 -4.263304,0.58961 -1.859526,0.54425 -3.719053,1.40598 l -1.451337,-3.40157 q 1.859526,-0.81638 3.991178,-1.45134 2.177007,-0.68031 5.215745,-0.68031 4.580784,0 7.211334,2.177 2.630549,2.13165 2.630549,5.76 0,2.13165 -0.544252,3.6737 -0.544251,1.54204 -1.678109,2.81196 -1.088503,1.22457 -2.857321,2.53984 -1.768817,1.31528 -2.675903,2.26772 -0.861732,0.90709 -1.133858,1.81417 -0.272126,0.90709 -0.272126,2.22236 v 0.40819 h -3.537635 z m 1.950235,10.43149 q -1.179212,0 -1.99559,-0.72567 -0.816377,-0.72566 -0.816377,-2.35842 0,-1.72346 0.816377,-2.40378 0.816378,-0.68031 1.99559,-0.68031 1.179212,0 1.995589,0.68031 0.816377,0.68032 0.816377,2.40378 0,1.63276 -0.816377,2.35842 -0.816377,0.72567 -1.995589,0.72567 z"
       id="text8"
       style="font-size:45.3543px;font-family:'Noto Sans Mono';-inkscape-font-specification:'Noto Sans Mono';white-space:pre;fill:#f9f9f9;stroke-width:1.88976"
       transform="matrix(2.3042043,0,0,2.3042043,-21.349225,-570.99572)"
       aria-label="?" /></g></svg>
